<svg width="46" height="46" xmlns="http://www.w3.org/2000/svg" fill="none">

 <g>
  <title>Layer 1</title>
  <rect id="svg_1" stroke-width="1.81121" stroke="#FCC436" rx="21.7345" height="43.469" width="43.469" y="0.9056" x="0.9056"/>
  <path id="svg_3" stroke-width="0.20508" stroke="#FCC436" fill="#FCC436" d="m22.1771,25.355l0,7.6145l-4.5118,0l-0.1026,0l0,0.1025l0,2.0509l0,0.1025l0.1026,0l11.2796,0l0.1025,0l0,-0.1025l0,-2.0509l0,-0.1025l-0.1025,0l-4.5119,0l0,-7.6145l11.2529,-12.3246l0.0268,-0.0293l0,-0.0398l0,-2.9613l0,-0.10254l-0.1025,0l-24.6102,0l-0.1025,0l0,0.10254l0,2.9613l0,0.0398l0.0268,0.0293l11.2528,12.3246zm-8.9988,-13.2016l20.2535,0l-3.0896,3.3839l-14.0742,0l-3.0897,-3.3839zm5.1494,5.6398l9.9547,0l-4.9622,5.4348l-0.0303,0l-4.9622,-5.4348z"/>
  <path id="svg_4" fill="#FCC436" d="m23.3051,26.4067l-7.1043,-9.2288l14.2086,0l-7.1043,9.2288z"/>
 </g>
</svg>