<svg width="46" height="46" xmlns="http://www.w3.org/2000/svg" fill="none">

 <mask fill="black" height="16" width="27" y="6.96164" x="9.13385" maskUnits="userSpaceOnUse" id="path-4-outside-1_13_135">
  <rect id="svg_1" height="16" width="27" y="6.96164" x="9.13385" fill="white"/>
  <path id="svg_2" d="m14.3821,19.3657l0.9982,-4.5301c0,0 -3.7624,-0.3072 -3.1865,-3.6472c0,0 4.8757,1.6125 6.2577,0.2304c0,0 3.0555,-3.2645 7.9335,-0.0211c1.6275,1.0823 6.2577,-0.2303 6.2577,-0.2303c0.5759,3.34 -3.1865,3.6471 -3.1865,3.6471l0.9982,4.5302"/>
 </mask>
 <g>
  <title>Layer 1</title>
  <rect id="svg_3" stroke-width="1.81121" stroke="#FCC436" rx="21.7345" height="43.469" width="43.469" y="0.9056" x="0.9056"/>
  <path id="svg_5" fill="#FCC436" d="m17.587,21.7288c0,0 -1.4928,-0.1072 -1.8754,-0.4898c-0.3826,-0.3826 -0.3826,-1.0029 0,-1.3855c0.3826,-0.3826 1.0029,-0.3826 1.3855,0c0.3826,0.3826 0.4899,1.8753 0.4899,1.8753z"/>
  <path id="svg_6" mask="url(#path-4-outside-1_13_135)" fill="#FCC436" d="m11.7289,18.7811c-0.3228,1.4653 0.6033,2.9149 2.0686,3.2378c1.4653,0.3228 2.9149,-0.6033 3.2378,-2.0686l-5.3064,-1.1692zm3.6514,-3.9455l2.6532,0.5846c0.1688,-0.7662 -0.0018,-1.5679 -0.468,-2.1989c-0.4661,-0.631 -1.1823,-1.0297 -1.9642,-1.0935l-0.221,2.7078zm-3.1865,-3.6472l0.853,-2.57939c-0.7507,-0.24829 -1.5725,-0.15715 -2.2506,0.24965c-0.6781,0.4068 -1.14535,1.08887 -1.27971,1.86814l2.67731,0.4616zm6.2577,0.2304l1.9212,1.921c0.0211,-0.0212 0.0419,-0.0427 0.0624,-0.0645l-1.9836,-1.8565zm7.9335,-0.0211l1.5043,-2.26229l-0.0001,-0.00002l-1.5042,2.26231zm6.2577,-0.2303l2.6773,-0.4616c-0.1309,-0.75913 -0.5779,-1.42701 -1.2298,-1.83745c-0.6518,-0.41044 -1.4473,-0.52485 -2.1885,-0.31475l0.741,2.6138zm-3.1865,3.6471l-0.221,-2.7078c-0.7819,0.0639 -1.4981,0.4626 -1.9642,1.0936c-0.4661,0.631 -0.6368,1.4327 -0.4679,2.1988l2.6531,-0.5846zm-1.655,5.1148c0.3229,1.4653 1.7725,2.3914 3.2378,2.0686c1.4653,-0.3229 2.3914,-1.7725 2.0686,-3.2378l-5.3064,1.1692zm-10.7659,0.021l0.9982,-4.5301l-5.3064,-1.1692l-0.9982,4.5301l5.3064,1.1692zm-1.655,-5.1147c0.221,-2.7078 0.2222,-2.7077 0.2234,-2.7077c0.0003,0.0001 0.0015,0.0002 0.0022,0.0002c0.0015,0.0002 0.0029,0.0003 0.0043,0.0004c0.0027,0.0002 0.0053,0.0005 0.0076,0.0007c0.0047,0.0004 0.0087,0.0007 0.0118,0.001c0.0064,0.0007 0.0098,0.001 0.0104,0.0011c0.0012,0.0001 -0.008,-0.0009 -0.0261,-0.0035c-0.037,-0.0055 -0.1043,-0.0168 -0.1895,-0.0368c-0.1865,-0.044 -0.3725,-0.1097 -0.5096,-0.1878c-0.1325,-0.0753 -0.1166,-0.1021 -0.0807,-0.0362c0.0564,0.1033 -0.016,0.0907 0.037,-0.217l-5.35461,-0.9232c-0.23488,1.3623 -0.05293,2.6407 0.54681,3.7409c0.5795,1.0629 1.428,1.7392 2.1641,2.1581c0.7315,0.4162 1.4501,0.636 1.951,0.754c0.2586,0.0609 0.4807,0.0997 0.6471,0.1241c0.0838,0.0123 0.1548,0.0211 0.2108,0.0274c0.0281,0.0031 0.0525,0.0056 0.0731,0.0076c0.0102,0.001 0.0196,0.0019 0.0279,0.0026c0.0041,0.0004 0.008,0.0007 0.0117,0.001c0.0018,0.0002 0.0036,0.0003 0.0053,0.0005c0.0009,0 0.0021,0.0001 0.0025,0.0002c0.0012,0.0001 0.0024,0.0002 0.2235,-2.7076zm-3.1865,-3.6472c-0.853,2.5794 -0.8526,2.5796 -0.8521,2.5797c0.0002,0.0001 0.0006,0.0003 0.001,0.0004c0.0007,0.0002 0.0015,0.0005 0.0024,0.0008c0.0018,0.0006 0.0038,0.0012 0.0062,0.002c0.0047,0.0015 0.0106,0.0035 0.0176,0.0058c0.0141,0.0045 0.0329,0.0106 0.0561,0.018c0.0463,0.0147 0.1104,0.0348 0.1901,0.0591c0.1591,0.0484 0.3822,0.1139 0.6523,0.187c0.5342,0.1446 1.2801,0.3264 2.0934,0.461c0.7916,0.1311 1.7621,0.2373 2.7097,0.1745c0.8459,-0.0561 2.2439,-0.2786 3.3022,-1.3369l-3.8423,-3.84209c0.3673,-0.36724 0.6375,-0.27302 0.1806,-0.24272c-0.3554,0.02356 -0.8629,-0.01414 -1.463,-0.11345c-0.5784,-0.09574 -1.1378,-0.23067 -1.5609,-0.34521c-0.2087,-0.05646 -0.3773,-0.10609 -0.4902,-0.14045c-0.0563,-0.01714 -0.0983,-0.03035 -0.1241,-0.03855c-0.0129,-0.00409 -0.0216,-0.00693 -0.026,-0.00836c-0.0023,-0.00072 -0.0034,-0.00109 -0.0034,-0.00108c0,0 0.0003,0.00009 0.0009,0.00028c0.0003,0.00009 0.0006,0.00021 0.001,0.00035c0.0003,0.00007 0.0006,0.00019 0.0007,0.00023c0.0004,0.00013 0.0008,0.00026 -0.8522,2.57965zm6.2577,0.2304c1.9836,1.8565 1.9824,1.8577 1.9813,1.859c-0.0004,0.0003 -0.0016,0.0016 -0.0023,0.0024c-0.0015,0.0015 -0.0029,0.0031 -0.0043,0.0045c-0.0028,0.003 -0.0055,0.0058 -0.008,0.0084c-0.005,0.0053 -0.0094,0.0098 -0.0132,0.0137c-0.0076,0.0078 -0.0127,0.0129 -0.0156,0.0157c-0.0056,0.0055 -0.002,0.0017 0.0103,-0.0092c0.0251,-0.0224 0.0826,-0.0713 0.1696,-0.1326c0.1777,-0.125 0.4496,-0.2816 0.798,-0.3858c0.5809,-0.1737 1.7301,-0.3205 3.5134,0.8652l3.0085,-4.52471c-3.0947,-2.05772 -5.9122,-2.19407 -8.0784,-1.5464c-1.0252,0.30652 -1.8221,0.76334 -2.3698,1.14899c-0.2756,0.19409 -0.4949,0.37488 -0.656,0.51838c-0.0807,0.07197 -0.1476,0.13523 -0.2003,0.18695c-0.0264,0.02588 -0.0494,0.04896 -0.0688,0.06887c-0.0097,0.00996 -0.0186,0.01913 -0.0265,0.02749c-0.004,0.00418 -0.0078,0.00815 -0.0114,0.01191c-0.0017,0.00188 -0.0035,0.00371 -0.0051,0.00548c-0.0009,0.00089 -0.0021,0.00219 -0.0025,0.00263c-0.0012,0.00128 -0.0024,0.00254 1.9811,1.85911zm6.4292,2.2413c1.0333,0.687 2.2361,0.8367 3.0494,0.8724c0.8952,0.0394 1.8092,-0.0456 2.5753,-0.1541c0.7802,-0.1106 1.4901,-0.2579 1.9999,-0.3757c0.2571,-0.0594 0.4688,-0.1125 0.6195,-0.1518c0.0755,-0.0196 0.1361,-0.0359 0.1798,-0.0478c0.0218,-0.0059 0.0395,-0.0108 0.0528,-0.0145c0.0066,-0.0018 0.0121,-0.0034 0.0165,-0.0046c0.0022,-0.0006 0.0041,-0.0012 0.0058,-0.0016c0.0008,-0.0003 0.0015,-0.0005 0.0022,-0.0007c0.0003,-0.0001 0.0008,-0.0002 0.0009,-0.0002c0.0005,-0.0001 0.0009,-0.0003 -0.7401,-2.6141c-0.741,-2.6138 -0.7406,-2.61391 -0.7402,-2.61401c0.0001,-0.00003 0.0004,-0.00013 0.0006,-0.00018c0.0004,-0.00011 0.0007,-0.0002 0.001,-0.00027c0.0005,-0.00015 0.0007,-0.00021 0.0007,-0.0002c-0.0001,0.00002 -0.0012,0.00034 -0.0034,0.00095c-0.0044,0.00121 -0.0129,0.00357 -0.0254,0.00696c-0.0249,0.00679 -0.0654,0.01769 -0.1197,0.03182c-0.1088,0.02831 -0.2716,0.06926 -0.4739,0.11601c-0.4093,0.09452 -0.9587,0.2077 -1.5394,0.28999c-0.5949,0.08431 -1.1436,0.12458 -1.5743,0.10565c-0.5127,-0.02252 -0.4989,-0.11467 -0.2794,0.03129l-3.0086,4.52469zm5.0847,-2.0311c0.053,0.3077 -0.0193,0.3203 0.037,0.217c0.0359,-0.0659 0.0518,-0.0392 -0.0807,0.0362c-0.1371,0.078 -0.3231,0.1438 -0.5096,0.1878c-0.0852,0.02 -0.1525,0.0313 -0.1895,0.0368c-0.0181,0.0026 -0.0273,0.0036 -0.0261,0.0035c0.0006,-0.0001 0.004,-0.0005 0.0104,-0.0011c0.0031,-0.0003 0.0071,-0.0006 0.0118,-0.0011c0.0023,-0.0002 0.0049,-0.0004 0.0076,-0.0006c0.0014,-0.0001 0.0028,-0.0003 0.0043,-0.0004c0.0007,0 0.0019,-0.0001 0.0023,-0.0002c0.0011,-0.0001 0.0023,-0.0002 0.2233,2.7076c0.2211,2.7079 0.2223,2.7078 0.2235,2.7077c0.0004,-0.0001 0.0016,-0.0002 0.0025,-0.0003c0.0017,-0.0001 0.0035,-0.0002 0.0053,-0.0004c0.0037,-0.0003 0.0076,-0.0006 0.0117,-0.001c0.0083,-0.0008 0.0177,-0.0016 0.0279,-0.0026c0.0206,-0.002 0.045,-0.0045 0.0731,-0.0076c0.056,-0.0063 0.1271,-0.0151 0.2108,-0.0274c0.1664,-0.0244 0.3886,-0.0632 0.6471,-0.1241c0.5009,-0.118 1.2195,-0.3378 1.951,-0.7541c0.7362,-0.4189 1.5846,-1.0951 2.1641,-2.158c0.5997,-1.1003 0.7817,-2.3786 0.5468,-3.7409l-5.3546,0.9232zm-3.1623,3.7701l0.9981,4.5302l5.3064,-1.1692l-0.9982,-4.5302l-5.3063,1.1692z"/>
  <path id="svg_7" fill="#FCC436" d="m18.7238,29.0474l7.7037,0c0.1332,0 0.2608,0.0558 0.3469,0.1574c0.4147,0.4895 1.5402,2.1295 1.0259,5.0438c-0.09,0.5097 -0.5705,0.8533 -1.0795,0.7594c-1.7027,-0.3138 -5.5471,-0.8764 -8.2095,-0.1598c-0.5417,0.1458 -1.0809,-0.2224 -1.1478,-0.7793c-0.148,-1.2303 -0.1547,-3.2469 0.9847,-4.8339c0.0858,-0.1195 0.2286,-0.1876 0.3756,-0.1876z"/>
  <path id="svg_8" stroke-linejoin="round" stroke-linecap="round" stroke-miterlimit="10" stroke-width="0.9056" stroke="white" d="m19.402,31.1425c0,0 -0.3362,1.3986 1.5449,1.4333"/>
  <path id="svg_9" stroke-linejoin="round" stroke-linecap="round" stroke-miterlimit="10" stroke-width="2.71681" stroke="#FCC436" d="m19.0399,36.6236c0,0 3.1096,3.8775 6.7568,0.1536"/>
  <path id="svg_10" stroke-linejoin="round" stroke-linecap="round" stroke-miterlimit="10" stroke-width="2.71681" stroke="#FCC436" d="m13.3527,16.387c-1.501,-0.959 -3.61465,-2.2471 -6.09143,-1.6374c0,0 -0.72944,6.872 7.52463,7.6015l0.5943,0.4315c0,0 -1.122,4.3684 0.6181,7.8875"/>
  <path id="svg_11" fill="#FCC436" d="m27.2495,21.7065c0,0 1.4928,-0.1073 1.8754,-0.4898c0.3826,-0.3826 0.3826,-1.003 0,-1.3855c-0.3826,-0.3826 -1.003,-0.3826 -1.3855,0c-0.3826,0.3825 -0.4899,1.8753 -0.4899,1.8753z"/>
  <path id="svg_12" stroke-linejoin="round" stroke-linecap="round" stroke-miterlimit="10" stroke-width="0.9056" stroke="white" d="m25.9242,31.1215c0,0 0.3363,1.3985 -1.5449,1.4333"/>
  <path id="svg_13" stroke-linejoin="round" stroke-linecap="round" stroke-miterlimit="10" stroke-width="2.71681" stroke="#FCC436" d="m31.6029,16.291c1.4928,-0.9248 3.5604,-2.1562 5.9723,-1.5624c0,0 0.7294,6.872 -7.5246,7.6014l-0.5944,0.4316c0,0 1.2434,3.9076 -0.4967,7.4268"/>
 </g>
</svg>