<svg width="46" height="46" xmlns="http://www.w3.org/2000/svg" fill="none">

 <g>
  <title>Layer 1</title>
  <rect id="svg_1" stroke-width="1.81121" stroke="#FCC436" rx="21.7345" height="43.469" width="43.469" y="1.06309" x="0.96859"/>
  <path id="svg_2" fill="#FCC436" d="m32.35519,19.7364l0,11.203c0,0.7468 -0.2642,1.3845 -0.7927,1.9129c-0.5284,0.5285 -1.1661,0.7927 -1.9129,0.7927l-13.5282,0c-0.7468,0 -1.3845,-0.2642 -1.9129,-0.7927c-0.5285,-0.5284 -0.7927,-1.1661 -0.7927,-1.9129l0,-11.203c-0.4086,-0.2396 -0.7363,-0.5637 -0.9829,-0.9723c-0.2466,-0.4087 -0.3699,-0.8596 -0.3699,-1.3528c0,-0.9865 0.4826,-1.8919 1.4479,-2.7162c0.9653,-0.8244 2.2794,-1.4797 3.9422,-1.9658c1.6628,-0.4862 3.4736,-0.7293 5.4324,-0.7293c1.9588,0 3.7696,0.2431 5.4324,0.7293c1.6628,0.4861 2.9769,1.1414 3.9422,1.9658c0.9653,0.8243 1.4479,1.7297 1.4479,2.7162c0,0.4932 -0.1233,0.9441 -0.3699,1.3528c-0.2466,0.4086 -0.5743,0.7327 -0.9829,0.9723z"/>
  <path id="svg_3" fill="white" d="m22.51889,23.0859c0.0347,-0.1642 0.1325,-0.3281 0.2493,-0.4373c0.0567,-0.0531 0.104,-0.0801 0.1317,-0.0912l0.0052,-0.002c0.3132,0.0506 0.614,-0.1533 0.6802,-0.467c0.0682,-0.3232 -0.1385,-0.6405 -0.4617,-0.7088c-0.4807,-0.1014 -0.9082,0.148 -1.1726,0.3953c-0.2831,0.2649 -0.5136,0.6429 -0.6025,1.0639c-0.0683,0.3233 0.1385,0.6406 0.4617,0.7088c0.3232,0.0682 0.6405,-0.1385 0.7087,-0.4617z"/>
  <path id="svg_4" fill="white" d="m17.52849,20.2267c-2.1379,1.7031 -2.1931,4.5888 -1.1912,6.5329c0.6733,1.3065 1.9682,2.4693 3.9105,2.4693c0.4819,0 0.8295,-0.0132 1.1032,-0.0236c0.8292,-0.0315 0.9797,-0.0372 2.134,0.4287c1.5353,0.6196 3.1679,0.4357 4.5321,-0.4246c1.2277,-0.7742 1.9323,-2.5719 1.8129,-4.0308c-0.0634,-0.7733 0.0059,-1.0887 0.085,-1.4487c0.0701,-0.3191 0.148,-0.6733 0.148,-1.4127c0,-1.5735 -0.4662,-2.5766 -0.9323,-3.397c-0.4661,-0.8205 -0.9727,-1.6333 -2.4084,-2.5479c-1.1793,-0.7511 -3.413,-1.111 -5.1796,-0.1306c-1.2949,0.7186 -1.9423,1.3719 -2.7193,2.6785c-0.2941,0.4946 -0.5762,0.734 -1.2949,1.3065zm9.6635,2.9547c0,2.1801 -1.7674,3.9476 -3.9476,3.9476c-2.1802,0 -3.9476,-1.7675 -3.9476,-3.9476c0,-2.1802 1.7674,-3.9476 3.9476,-3.9476c2.1802,0 3.9476,1.7674 3.9476,3.9476z"/>
 </g>
</svg>