<svg width="46" height="46" xmlns="http://www.w3.org/2000/svg" fill="none">

 <g>
  <title>Layer 1</title>
  <rect id="svg_1" stroke-width="1.81121" stroke="#FCC436" rx="21.7345" height="43.469" width="43.469" y="0.9056" x="0.9056"/>
  <g>
   <path fill="#FCC436" d="m27.08816,16.3176c0,0 2.1141,-3.50338 1.1476,-3.98661c-0.9664,-0.48322 -2.4161,0.48323 -2.4161,0.48323c0,0 0.9664,-3.38258 -0.9665,-3.38258c-1.9329,0 -2.4161,1.9329 -2.4161,1.9329c0,0 -0.704,-4.00883 -3.38256,-2.89935c-1.67389,0.69343 -2.41612,2.41613 0,7.24838"/>
   <path fill="#FCC436" d="m19.04288,26.04027c0.75022,0 1.35838,-0.6082 1.35838,-1.3584c0,-0.7502 -0.60816,-1.3584 -1.35838,-1.3584c-0.75023,0 -1.35841,0.6082 -1.35841,1.3584c0,0.7502 0.60818,1.3584 1.35841,1.3584z"/>
   <path fill="#FCC436" d="m27.74096,26.04027c0.7503,0 1.3584,-0.6082 1.3584,-1.3584c0,-0.7502 -0.6081,-1.3584 -1.3584,-1.3584c-0.7502,0 -1.3584,0.6082 -1.3584,1.3584c0,0.7502 0.6082,1.3584 1.3584,1.3584z"/>
   <path fill="#FCC436" d="m23.00976,26.22287c0,0 8.698,-0.4833 0,8.698c0,0 -8.69807,-8.698 0,-8.698z"/>
   <path stroke-linejoin="round" stroke-linecap="round" stroke-miterlimit="10" stroke-width="2.71681" stroke="#FCC436" d="m22.99996,36.37057c0.0453,1.3576 0.046,1.3576 0.0467,1.3576l0.0018,-0.0001l0.0045,-0.0001l0.013,-0.0005l0.0416,-0.0019c0.0344,-0.0017 0.0822,-0.0043 0.1423,-0.0082c0.12,-0.0079 0.2894,-0.0211 0.499,-0.0428c0.4183,-0.0434 1.0019,-0.1213 1.6771,-0.2605c1.332,-0.2744 3.1073,-0.8045 4.6699,-1.8462c1.5895,-1.0597 2.9977,-2.6813 3.4161,-5.0797c0.4081,-2.34 -0.1657,-5.1998 -2.0266,-8.6984c-0.0204,-0.0512 -0.0485,-0.1197 -0.0848,-0.2031c-0.0755,-0.1735 -0.1868,-0.413 -0.3372,-0.6966c-0.2992,-0.5643 -0.7617,-1.3189 -1.4178,-2.0787c-1.3177,-1.52571 -3.4758,-3.12823 -6.6456,-3.12823c-3.16972,0 -5.32785,1.60252 -6.64554,3.12823c-0.65614,0.7598 -1.11861,1.5144 -1.41784,2.0787c-0.15038,0.2836 -0.26165,0.5231 -0.33716,0.6966c-0.03629,0.0834 -0.06446,0.1519 -0.08485,0.2031c-1.86088,3.4986 -2.43465,6.3584 -2.02651,8.6984c0.41833,2.3984 1.82654,4.02 3.41609,5.0797c1.56253,1.0417 3.33786,1.5718 4.66981,1.8462c0.6752,0.1392 1.2588,0.2171 1.6772,0.2605c0.2096,0.0217 0.3789,0.0349 0.499,0.0428c0.06,0.0039 0.1078,0.0065 0.1423,0.0082l0.0415,0.0019l0.0131,0.0005l0.0045,0.0001l0.0017,0.0001c0.0008,0 0.0015,0 0.0467,-1.3576zm0,0l-0.0452,1.3576c0.0301,0.001 0.0603,0.001 0.0905,0l-0.0453,-1.3576z"/>
  </g>
 </g>
</svg>