<svg width="45.99999999999999" height="45.99999999999999" xmlns="http://www.w3.org/2000/svg" fill="none">

 <g>
  <title>Layer 1</title>
  <rect id="svg_1" stroke-width="1.81121" stroke="#FCC436" rx="21.7345" height="43.469" width="43.469" y="0.9056" x="0.9056"/>
  <path id="svg_2" fill="#FCC436" d="m33.3142,11.6237c-0.0795,0.2827 -0.2562,0.4948 -0.5301,0.6361c-0.2738,0.1414 -0.561,0.1767 -0.8613,0.106l-3.8959,-1.1396l-0.7421,2.8623l0.1326,0c0.2296,0 0.4284,0.0839 0.5963,0.2518c0.1678,0.1678 0.2517,0.3666 0.2517,0.5963l0,19.5058c0,0.477 -0.1678,0.879 -0.5035,1.2059c-0.3357,0.3268 -0.7332,0.4903 -1.1926,0.4903l-6.7847,0c-0.477,0 -0.879,-0.1679 -1.2058,-0.5036c-0.3269,-0.3357 -0.4903,-0.7332 -0.4903,-1.1926l0,-15.2654c-1.4135,0 -2.6149,-0.4948 -3.6044,-1.4842c-0.9894,-0.9894 -1.4841,-2.1909 -1.4841,-3.6043c0,-1.4135 0.4947,-2.6149 1.4841,-3.6044c0.9895,-0.98939 2.1909,-1.4841 3.6044,-1.4841c1.4134,0 2.6149,0.49471 3.6043,1.4841c0.9894,0.9895 1.4842,2.1909 1.4842,3.6044l1.9346,0l1.1131,-4.24042c0.0707,-0.21202 0.1679,-0.37545 0.2916,-0.4903c0.1237,-0.11484 0.2827,-0.19435 0.477,-0.23852c0.1944,-0.04417 0.3446,-0.07067 0.4506,-0.07951c0.106,-0.00883 0.2915,-0.01325 0.5565,-0.01325l4.5054,1.3251c0.3181,0.0707 0.5522,0.2297 0.7024,0.4771c0.1501,0.2473 0.1855,0.5124 0.106,0.795zm-13.5296,5.3801c0.5124,-0.3004 0.9188,-0.7068 1.2192,-1.2192l-1.2192,0l0,1.2192zm-1.6961,-6.3076c-0.9364,0 -1.7359,0.3312 -2.3985,0.9938c-0.6626,0.6626 -0.9938,1.4621 -0.9938,2.3985c0,0.9364 0.3312,1.7359 0.9938,2.3985c0.6626,0.6625 1.4621,0.9938 2.3985,0.9938l0,-2.5442c0,-0.2297 0.0839,-0.4285 0.2518,-0.5963c0.1678,-0.1679 0.3666,-0.2518 0.5963,-0.2518l2.5442,0c0,-0.9364 -0.3313,-1.7359 -0.9938,-2.3985c-0.6626,-0.6626 -1.4621,-0.9938 -2.3985,-0.9938zm4.7704,5.0884c-0.2473,0.7244 -0.6404,1.3561 -1.1793,1.895c-0.5389,0.5389 -1.1706,0.932 -1.895,1.1793l0,2.0142l3.5249,0l1.3516,-5.0885l-1.8022,0zm3.7104,1.0071l-1.0866,4.0814l1.0866,0l0,-4.0814z"/>
 </g>
</svg>