<svg width="46.00000000000001" height="46.00000000000001" xmlns="http://www.w3.org/2000/svg" fill="none">

 <g>
  <title>Layer 1</title>
  <rect id="svg_1" stroke-width="1.81121" stroke="#FCC436" rx="21.7345" height="43.469" width="43.469" y="0.9056" x="0.9056"/>
  <path id="svg_3" stroke-linejoin="round" stroke-linecap="round" stroke-miterlimit="10" stroke-width="2.71681" stroke="#FCC436" d="m35.212,18.0158l0,12.6252c0,0.4502 -0.3647,0.8145 -0.8145,0.8145l-23.6213,0c-0.4498,0 -0.81453,-0.3643 -0.81453,-0.8145l0,-12.6252c0,-0.4494 0.36473,-0.8145 0.81453,-0.8145l13.8454,-2.2149"/>
  <path id="svg_4" stroke-linejoin="round" stroke-linecap="round" stroke-miterlimit="10" stroke-width="2.71681" stroke="#FCC436" d="m31.5542,13.9641c2.0542,0.2078 3.6578,1.943 3.6578,4.0517"/>
  <path id="svg_5" fill="#FCC436" d="m9.96168,17.6593l0.40722,5.2437c1.1248,0 2.0364,-0.9116 2.0364,-2.0359c0,-1.1248 0.9115,-2.0367 2.0363,-2.0367c1.1247,0 2.0363,0.9119 2.0363,2.0367c0,1.1243 0.9116,2.0359 2.0363,2.0359c1.1247,0 2.0363,-0.9116 2.0363,-2.0359c0,-1.1248 0.9116,-2.0367 2.0363,-2.0367c1.1248,0 2.0364,0.9119 2.0364,2.0367c0,1.1243 0.9115,2.0359 2.0363,2.0359c1.1247,0 2.0363,-0.9116 2.0363,-2.0359c0,-1.1248 0.9116,-2.0367 2.0363,-2.0367c1.1247,0 2.0363,0.9119 2.0363,2.0367c0,1.1243 0.9116,2.0359 2.0363,2.0359l-0.3917,-8.4133"/>
  <path id="svg_6" stroke-linejoin="round" stroke-linecap="round" stroke-miterlimit="10" stroke-width="2.71681" stroke="#FCC436" d="m9.96167,26.8845l25.25033,0"/>
  <path id="svg_7" stroke-linejoin="round" stroke-linecap="round" stroke-miterlimit="10" stroke-width="2.71681" stroke="#FCC436" fill="white" d="m28.0849,17.3381c1.8749,0 3.3947,-1.5198 3.3947,-3.3947c0,-1.8748 -1.5198,-3.3947 -3.3947,-3.3947c-1.8749,0 -3.3947,1.5199 -3.3947,3.3947c0,1.8749 1.5198,3.3947 3.3947,3.3947z"/>
  <path id="svg_8" stroke-linejoin="round" stroke-linecap="round" stroke-miterlimit="10" stroke-width="1.81121" stroke="#FCC436" d="m28.0848,13.1287c0,-2.2493 1.8232,-4.07265 4.0727,-4.07265"/>
 </g>
</svg>