<svg width="45.99999999999999" height="45.99999999999999" xmlns="http://www.w3.org/2000/svg" fill="none">
 <g>
  <title>Layer 1</title>
  <g id="svg_11">
   <path d="m25.79711,30.23837c0,1.63508 -0.95515,2.96028 -2.59022,2.96028l-6.10546,0c-1.63508,0 -2.59022,-1.3252 -2.59022,-2.96028" stroke="#FCC436" stroke-width="2.22062" stroke-miterlimit="10" stroke-linecap="round" id="svg_1"/>
   <path d="m26.44465,26.5381c0.8173,0 1.48017,0.82844 1.48017,1.85017c0,1.02173 -0.66287,1.8501 -1.48017,1.8501l-12.58098,0c-0.8173,0 -1.48011,-0.82837 -1.48011,-1.8501c0,-1.02173 0.6628,-1.85017 1.48011,-1.85017" stroke="#FCC436" stroke-width="2.22062" stroke-miterlimit="10" stroke-linecap="round" id="svg_2"/>
   <path d="m26.8147,26.5381l-7.6175,0c-0.09805,0.00007 -0.19203,0.03899 -0.26135,0.10824l-1.24102,1.24096c-0.0172,0.0172 -0.03759,0.03086 -0.06005,0.0402c-0.02246,0.00926 -0.04652,0.01406 -0.07086,0.01406c-0.02426,0 -0.04839,-0.0048 -0.07086,-0.01406c-0.02246,-0.00933 -0.04286,-0.023 -0.05999,-0.0402l-1.24102,-1.24096c-0.06931,-0.06926 -0.1633,-0.10818 -0.26135,-0.10824l-2.43712,0c-0.29441,0 -0.57675,-0.11697 -0.78491,-0.32514c-0.20823,-0.20816 -0.32514,-0.49057 -0.32514,-0.78498c0,-0.29441 0.11691,-0.57675 0.32514,-0.78491c0.20816,-0.20823 0.49051,-0.32514 0.78491,-0.32514l13.3211,0c0.29441,0 0.57675,0.11691 0.78498,0.32514c0.20816,0.20816 0.32514,0.49051 0.32514,0.78491c0,0.29441 -0.11697,0.57682 -0.32514,0.78498c-0.20823,0.20816 -0.49057,0.32514 -0.78498,0.32514z" fill="#FCC436" stroke="#FCC436" stroke-width="2.22062" stroke-miterlimit="10" stroke-linecap="round" id="svg_3"/>
   <path d="m13.86353,23.76284l0,-0.01014c0,-2.54397 2.08146,-3.87517 4.62542,-3.87517l3.33028,0c2.5439,0 4.62536,1.34134 4.62536,3.8853l0,-0.01014" stroke="#FCC436" stroke-width="2.22062" stroke-miterlimit="10" stroke-linecap="round" id="svg_4"/>
   <path d="m22.05058,16.17727l0.34413,2.95882" stroke="#FCC436" stroke-width="2.22062" stroke-miterlimit="10" stroke-linecap="round" id="svg_5"/>
   <path d="m22.74431,33.19865l6.44359,0c0.37339,-0.00007 0.73299,-0.14117 1.00674,-0.39519c0.27374,-0.25395 0.44132,-0.60201 0.46925,-0.97441l1.65494,-15.65178" stroke="#FCC436" stroke-width="2.22062" stroke-miterlimit="10" stroke-linecap="round" id="svg_6"/>
   <path d="m27.92482,16.17727l0.74005,-2.96022l2.1739,-0.74012" stroke="#FCC436" stroke-width="2.22062" stroke-linecap="round" stroke-linejoin="round" id="svg_7"/>
   <path d="m21.2642,16.17727l11.84093,0" stroke="#FCC436" stroke-width="2.22062" stroke-miterlimit="10" stroke-linecap="round" id="svg_8"/>
   <rect x="1.3344" y="1.61464" width="42.69225" height="42.69225" rx="32.0255" stroke="#FCC436" stroke-width="2.66879" id="svg_10"/>
  </g>
 </g>

</svg>