<svg width="46" height="46" xmlns="http://www.w3.org/2000/svg" fill="none">
 <defs>
  <clipPath id="clip0_2906_9">
   <rect id="svg_1" x="8" y="8" fill="white" height="30" width="30"/>
  </clipPath>
 </defs>
 <g>
  <title>Layer 1</title>
  <rect id="svg_2" stroke-width="1.81121" stroke="#FCC436" rx="21.7345" height="43.469" width="43.469" y="0.9056" x="0.9056"/>
  <g id="svg_4" clip-path="url(#clip0_2906_9)">
   <path id="svg_5" stroke-width="0.5" stroke="#FCC436" fill="#FCC436" d="m31.874,7.85033l-0.0002,-0.00004c-0.0667,-0.01331 -0.7635,-0.14688 -1.6832,-0.08317c-0.9181,0.06361 -2.0816,0.32556 -3.0571,1.12464c-0.7786,0.63785 -1.3037,1.49524 -1.5783,2.54664c-1.611,-0.5724 -3.4171,-0.6027 -5.1101,0.0002c-0.2747,-1.0515 -0.7997,-1.9089 -1.5785,-2.54679c-0.9754,-0.79907 -2.1389,-1.06105 -3.0571,-1.12468c-0.9197,-0.06374 -1.6165,0.06981 -1.6833,0.08319l-0.0001,0.00002c-0.6762,0.13579 -1.1176,0.79452 -0.9817,1.47201l0,0.00002c0.1356,0.67525 0.7902,1.11533 1.4671,0.98053c0.0339,-0.0061 0.4453,-0.0769 0.9752,-0.0477c0.5582,0.0307 1.2117,0.1706 1.7023,0.5761c0.4667,0.3858 0.7647,1.0137 0.8544,1.9143c-0.54,0.4467 -1.019,0.9684 -1.4206,1.5525l-6.3081,0c-0.69039,0 -1.25009,0.5597 -1.25009,1.2501c0,2.8125 2.43599,5.0006 5.20139,4.731c-0.0495,0.1432 -0.1085,0.3142 -0.1767,0.5119c-0.3954,1.1454 -1.1015,3.191 -2.061,5.9702c-0.2254,0.6526 0.121,1.3643 0.7736,1.5895c0.6527,0.2253 1.3643,-0.1211 1.5896,-0.7736l0.3446,-0.9981l3.3284,8.3872c0.789,1.9884 2.6798,3.2759 4.8179,3.283l0.002,0.0002c0.0039,0.0002 0.0093,0.0004 0.0157,0.0004c0.0031,0 0.0059,-0.0001 0.0085,-0.0001c0.0027,-0.0001 0.0052,-0.0002 0.0072,-0.0003l0.002,-0.0002c2.1376,-0.0071 4.0284,-1.2945 4.8177,-3.2829l0,-0.0001l3.3284,-8.387l0.3445,0.9979l0,0c0.2255,0.6528 0.9371,0.9988 1.5896,0.7736l0,0c0.6526,-0.2253 0.9989,-0.9369 0.7736,-1.5895l-0.2363,0.0816l0.2363,-0.0816c-0.2232,-0.6466 -0.4173,-1.2085 -0.5877,-1.7019c-0.9704,-2.8094 -1.1743,-3.3999 -1.6366,-4.7789c2.768,0.2625 5.1881,-1.9329 5.1881,-4.7323c0,-0.6904 -0.5597,-1.2501 -1.2501,-1.2501l-6.3054,0c-0.3889,-0.5976 -0.8388,-1.0883 -1.4226,-1.5579c0.0904,-0.8978 0.3881,-1.5239 0.8538,-1.9089c0.4906,-0.4056 1.1441,-0.5454 1.7019,-0.5763c0.5365,-0.0297 0.9503,0.0433 0.9693,0.0467c0.0006,0.0001 0.0008,0.0001 0.0007,0.0001l0.0482,-0.2453l-0.049,0.2451c0.6773,0.1354 1.3355,-0.30277 1.4714,-0.97962c0.1359,-0.67698 -0.3028,-1.33578 -0.9796,-1.47165zm-6.3846,21.73697l0,0c0.6989,-0.8071 0.1261,-2.0685 -0.9449,-2.0685l-3.0888,0c-1.0673,0 -1.6461,1.2586 -0.9449,2.0685l0,0l1.2393,1.4309l0,4.4279c-0.5625,-0.292 -1.0151,-0.7805 -1.2616,-1.4019l-0.2324,0.0922l0.2324,-0.0922l-4.4011,-11.0901c1.5578,-4.5117 1.6493,-4.7759 1.7399,-5.0403c0.0198,-0.0576 0.0395,-0.1152 0.0743,-0.2167l0,-0.0001c0.9587,-2.7996 3.0312,-4.2122 5.073,-4.2386c2.0381,-0.0264 4.1271,1.3278 5.1234,4.2372l0,0.0001c0.1829,0.5336 0.8977,2.6025 1.3833,4.008c0.2015,0.5831 0.3635,1.0521 0.4318,1.2499l-4.4014,11.0905c-0.2466,0.6213 -0.6992,1.1099 -1.2616,1.4019l0,-4.4278l1.2393,-1.4309zm-10.0696,-12.3609c-1.0334,0.9271 -2.6333,0.6947 -3.3772,-0.4281l3.5239,0c-0.0138,0.0402 -0.0278,0.0811 -0.042,0.1228c-0.0333,0.0971 -0.068,0.1983 -0.1047,0.3053zm18.5374,-0.4281c-0.7302,1.1008 -2.2913,1.3546 -3.3346,0.4642c-0.0571,-0.1601 -0.1132,-0.3147 -0.1687,-0.4642l3.5033,0z"/>
   <path id="svg_6" fill="#FCC436" d="m25.7548,23.9374c0.7306,0 1.3229,-0.5923 1.3229,-1.3229c0,-0.7306 -0.5923,-1.3229 -1.3229,-1.3229c-0.7306,0 -1.3229,0.5923 -1.3229,1.3229c0,0.7306 0.5923,1.3229 1.3229,1.3229z"/>
   <path id="svg_7" fill="#FCC436" d="m20.2855,23.9374c0.7306,0 1.3229,-0.5923 1.3229,-1.3229c0,-0.7306 -0.5923,-1.3229 -1.3229,-1.3229c-0.7307,0 -1.323,0.5923 -1.323,1.3229c0,0.7306 0.5923,1.3229 1.323,1.3229z"/>
  </g>
 </g>
</svg>