<svg width="46" height="46" xmlns="http://www.w3.org/2000/svg" fill="none">

 <g>
  <title>Layer 1</title>
  <rect id="svg_1" stroke-width="1.81121" stroke="#FCC436" rx="21.7345" height="43.469" width="43.469" y="0.9056" x="0.9056"/>
  <path id="svg_2" fill="#FCC436" d="m16.8972,10c-0.4955,0 -0.8972,0.4017 -0.8972,0.8972l0,8.9719c0,3.6607 2.7406,6.6813 6.282,7.1222c-0.0011,0.0183 -0.0017,0.0366 -0.0017,0.0553l0,6.2803l-2.6916,0c-0.4954,0 -0.8971,0.4017 -0.8971,0.8972c0,0.4954 0.4017,0.8972 0.8971,0.8972l7.1775,0c0.4955,0 0.8972,-0.4018 0.8972,-0.8972c0,-0.4955 -0.4017,-0.8972 -0.8972,-0.8972l-2.6915,0l0,-6.2803c0,-0.0187 -0.0006,-0.037 -0.0017,-0.0553c3.5415,-0.4409 6.282,-3.4615 6.282,-7.1222l0,-8.9719c0,-0.4955 -0.4018,-0.8972 -0.8972,-0.8972l-12.5606,0zm0.8972,5.3831l0,-3.5887l10.7662,0l0,3.5887l-10.7662,0zm10.2875,4.1328c-0.1149,1.0357 -0.5547,2.0085 -1.2564,2.7788c-0.7017,0.7704 -1.6293,1.2989 -2.6499,1.5097c-0.4852,0.1002 -0.9598,-0.2119 -1.0601,-0.6972c-0.1002,-0.4853 0.2119,-0.9599 0.6972,-1.0601c0.6494,-0.1342 1.2397,-0.4705 1.6863,-0.9607c0.4465,-0.4902 0.7264,-1.1093 0.7995,-1.7684c0.0546,-0.4924 0.4983,-0.8474 0.9906,-0.7927c0.4926,0.0546 0.8475,0.4981 0.7928,0.9906z"/>
 </g>
</svg>