<svg width="46" height="46" xmlns="http://www.w3.org/2000/svg" fill="none">

 <g>
  <title>Layer 1</title>
  <rect id="svg_1" stroke-width="1.81121" stroke="#FCC436" rx="21.7345" height="43.469" width="43.469" y="0.9056" x="1.2578"/>
  <path id="svg_2" fill="#FCC436" d="m22.1131,12c-1.1378,0 -2.1079,0.5314 -2.8533,1.284c-0.4066,-0.157 -0.7918,-0.371 -1.2554,-0.371c-2.008,0 -3.6522,1.6442 -3.6522,3.6522c0,0.938 0.3816,1.7762 0.9701,2.4253c-0.0357,0.0999 -0.0571,0.2069 -0.0571,0.3138l0,11.8696c0,1.5015 1.2376,2.7391 2.7392,2.7391l10.9565,0c1.5015,0 2.7391,-1.2376 2.7391,-2.7391l0,-1.8261l0.9131,0c1.5015,0 2.7391,-1.2376 2.7391,-2.7391l0,-3.6522c0,-1.5015 -1.2376,-2.7391 -2.7391,-2.7391l-0.9131,0l0,-1.0842c0.0072,-0.0678 0.0072,-0.132 0,-0.1998c0.5564,-0.642 0.9131,-1.4587 0.9131,-2.3682c0,-2.008 -1.6442,-3.6522 -3.6522,-3.6522c-0.6812,0 -1.284,0.2426 -1.8261,0.5707c-0.5421,-0.3281 -1.1449,-0.5707 -1.8261,-0.5707c-0.2354,0 -0.4208,0.0714 -0.6277,0.1142c-0.7097,-0.5956 -1.5693,-1.0272 -2.5679,-1.0272zm-2.1114,7.5326c0.6241,0.3888 1.3232,0.6848 2.1114,0.6848c0.0963,0 0.1391,-0.0464 0.2282,-0.0571c-0.0749,0.3531 -0.0713,0.8061 -0.1712,1.1128c-0.2175,0.6705 -0.5136,1.3125 -0.5136,2.1399c0,1.7548 1.4409,3.1957 3.1957,3.1957c1.7548,0 3.1957,-1.4409 3.1957,-3.1957c0,-0.8274 -0.2961,-1.473 -0.5136,-2.1399c-0.1177,-0.3638 -0.1498,-0.8774 -0.2283,-1.3125c0.5849,0.1355 0.8489,0.2568 1.6549,0.2568c0.3139,0 0.6206,-0.0678 0.913,-0.1427l0,0.7704c-0.0535,0.1783 -0.0535,0.3638 0,0.5421l0,6.8764c-0.0249,0.1213 -0.0249,0.2496 0,0.3709l0,2.5394c0,0.5172 -0.3959,0.9131 -0.913,0.9131l-10.9565,0c-0.5172,0 -0.9131,-0.3959 -0.9131,-0.9131l0,-11.0992c0.2925,0.0749 0.5992,0.1427 0.9131,0.1427c0.7525,0 1.4159,-0.2925 1.9973,-0.6848zm11.6983,2.5109l0.9131,0c0.5171,0 0.913,0.3959 0.913,0.913l0,3.6522c0,0.5171 -0.3959,0.913 -0.913,0.913l-0.9131,0l0,-5.4782z"/>
 </g>
</svg>