<svg width="46" height="46" xmlns="http://www.w3.org/2000/svg" fill="none">

 <g>
  <title>Layer 1</title>
  <rect id="svg_1" stroke-width="1.81121" stroke="#FCC436" rx="21.7345" height="43.469" width="43.469" y="0.9056" x="0.9056"/>
  <path id="svg_3" stroke-linecap="round" stroke-width="2.65071" stroke="#FCC436" d="m13.9,17.9521l18.555,0"/>
  <path id="svg_4" stroke-width="2.65071" stroke="#FCC436" d="m16.6521,19.3719c-0.0548,-0.7671 0.5529,-1.4198 1.3221,-1.4198l10.4067,0c0.7691,0 1.3768,0.6527 1.322,1.4198l-1.136,15.9043c-0.0496,0.6936 -0.6267,1.2309 -1.322,1.2309l-8.1348,0c-0.6953,0 -1.2724,-0.5373 -1.322,-1.2309l-1.136,-15.9043z"/>
  <path id="svg_5" stroke-linecap="round" stroke-width="2.65071" stroke="#FCC436" d="m23.1775,13.9761l0,-2.6507c0,-0.732 0.5934,-1.3254 1.3253,-1.3254l1.9881,0"/>
  <path id="svg_6" stroke-width="2.65071" stroke="#FCC436" fill="#FCC436" d="m17.0288,15.0835c0.1065,-0.6391 0.6595,-1.1075 1.3074,-1.1075l9.6826,0c0.6479,0 1.2009,0.4684 1.3074,1.1075l0.4781,2.8686l-13.2536,0l0.4781,-2.8686z"/>
 </g>
</svg>